<svg width="8" height="8" viewBox="0 0 8 8" fill="none" xmlns="http://www.w3.org/2000/svg">
<path d="M6.625 4C6.625 4.51918 6.47105 5.02669 6.18261 5.45837C5.89417 5.89005 5.4842 6.2265 5.00455 6.42518C4.52489 6.62386 3.99709 6.67585 3.48789 6.57456C2.97869 6.47328 2.51096 6.22327 2.14385 5.85616C1.77673 5.48904 1.52673 5.02131 1.42544 4.51211C1.32415 4.00291 1.37614 3.47511 1.57482 2.99546C1.7735 2.5158 2.10995 2.10583 2.54163 1.81739C2.97331 1.52895 3.48083 1.375 4 1.375C4.69619 1.375 5.36387 1.65156 5.85616 2.14384C6.34844 2.63613 6.625 3.30381 6.625 4Z" fill="#757575"/>
</svg>
