<svg width="24" height="24" viewBox="0 0 24 24" fill="none" xmlns="http://www.w3.org/2000/svg">
<g id="octicon:question-24">
<path id="Vector" d="M10.6926 7.84898L10.6926 7.84893L10.6867 7.85297C10.4099 8.0433 10.187 8.30187 10.0395 8.60353C10.0082 8.65656 9.95823 8.69624 9.89926 8.71476C9.83746 8.73417 9.77055 8.72884 9.7126 8.69989C9.65466 8.67094 9.61022 8.62063 9.58863 8.55956C9.56777 8.50054 9.56983 8.43591 9.59427 8.37845C9.76441 8.03958 10.0236 7.69431 10.4159 7.43329L10.4159 7.43329L10.4173 7.43237C10.8133 7.16705 11.3307 7 12 7C12.5667 7 13.1681 7.16938 13.6339 7.51892L13.6338 7.51895L13.6389 7.52265C13.8896 7.70592 14.0929 7.94642 14.2319 8.22413C14.3709 8.50184 14.4416 8.80873 14.438 9.11926L14.438 9.11926V9.125C14.438 9.96633 14.0295 10.5317 13.5641 10.9799L13.5641 10.9799C13.3889 11.1487 13.1931 11.3129 13.0119 11.4639L13.0111 11.4645L12.8662 11.5858C12.695 11.726 12.5336 11.8778 12.3832 12.0402L12.25 12.184V12.38L12.25 13.75C12.25 13.8163 12.2236 13.8799 12.1768 13.9268C12.1299 13.9737 12.0663 14 12 14C11.9337 14 11.8701 13.9737 11.8232 13.9268C11.7763 13.8799 11.75 13.8163 11.75 13.75L11.75 12.277C11.75 12.132 11.7908 11.9785 11.8912 11.8486C12.0776 11.6116 12.3099 11.4024 12.5372 11.2094L12.7187 11.0576L12.7357 11.0434L12.7362 11.0429C12.9001 10.9066 13.0606 10.772 13.2169 10.6201C13.6324 10.2191 13.9359 9.77844 13.938 9.13177C13.9434 8.89448 13.8907 8.65941 13.7843 8.44715C13.678 8.23501 13.5213 8.05218 13.3281 7.9146C12.962 7.64242 12.4733 7.5 12 7.5C11.4183 7.5 10.9995 7.64438 10.6926 7.84898ZM12.5 17C12.5 17.1326 12.4473 17.2598 12.3535 17.3536C12.2598 17.4473 12.1326 17.5 12 17.5C11.8674 17.5 11.7402 17.4473 11.6464 17.3536C11.5527 17.2598 11.5 17.1326 11.5 17C11.5 16.8674 11.5527 16.7402 11.6464 16.6464C11.7402 16.5527 11.8674 16.5 12 16.5C12.1326 16.5 12.2598 16.5527 12.3535 16.6464C12.4473 16.7402 12.5 16.8674 12.5 17Z" fill="#616161" stroke="#616161"/>
<path id="Vector_2" d="M12 1C18.075 1 23 5.925 23 12C23 18.075 18.075 23 12 23C5.925 23 1 18.075 1 12C1 5.925 5.925 1 12 1ZM2.5 12C2.5 14.5196 3.50089 16.9359 5.28249 18.7175C7.06408 20.4991 9.48044 21.5 12 21.5C14.5196 21.5 16.9359 20.4991 18.7175 18.7175C20.4991 16.9359 21.5 14.5196 21.5 12C21.5 9.48044 20.4991 7.06408 18.7175 5.28249C16.9359 3.50089 14.5196 2.5 12 2.5C9.48044 2.5 7.06408 3.50089 5.28249 5.28249C3.50089 7.06408 2.5 9.48044 2.5 12Z" fill="#616161"/>
</g>
</svg>
