<svg width="18" height="21" viewBox="0 0 18 21" fill="none" xmlns="http://www.w3.org/2000/svg">
<g id="Paper">
<path id="Paper_2" fill-rule="evenodd" clip-rule="evenodd" d="M5.92574 14.9194L11.3119 14.9194C11.7178 14.9194 12.0545 14.5794 12.0545 14.1694C12.0545 13.7594 11.7178 13.4294 11.3119 13.4294L5.92574 13.4294C5.5198 13.4294 5.18317 13.7594 5.18317 14.1694C5.18317 14.5794 5.5198 14.9194 5.92574 14.9194ZM9.27228 8.42942L5.92574 8.42942C5.5198 8.42942 5.18317 8.76942 5.18317 9.17942C5.18317 9.58942 5.5198 9.91942 5.92574 9.91942L9.27228 9.91942C9.67822 9.91942 10.0149 9.58942 10.0149 9.17942C10.0149 8.76942 9.67822 8.42942 9.27228 8.42942ZM16.3381 7.55503C16.5708 7.55234 16.8242 7.54942 17.0545 7.54942C17.302 7.54942 17.5 7.74942 17.5 7.99942L17.5 16.0394C17.5 18.5194 15.5099 20.5294 13.0545 20.5294L5.17327 20.5294C2.59901 20.5294 0.5 18.4194 0.5 15.8194L0.5 5.03942C0.5 2.55942 2.5 0.529419 4.96535 0.529419L10.2525 0.529419C10.5099 0.529419 10.7079 0.739419 10.7079 0.989419V4.20942C10.7079 6.03942 12.203 7.53942 14.0149 7.54942C14.4381 7.54942 14.8112 7.55258 15.1377 7.55535C15.3917 7.5575 15.6175 7.55942 15.8168 7.55942C15.9578 7.55942 16.1405 7.55731 16.3381 7.55503ZM16.6111 6.09542C15.7972 6.09842 14.8378 6.09542 14.1477 6.08842C13.0527 6.08842 12.1507 5.17742 12.1507 4.07142V1.43542C12.1507 1.00442 12.6685 0.790419 12.9646 1.10142C13.5004 1.66418 14.2368 2.43776 14.9699 3.20779C15.7009 3.97574 16.4286 4.74016 16.9507 5.28842C17.2398 5.59142 17.0279 6.09442 16.6111 6.09542Z" fill="#005339"/>
</g>
</svg>
