<svg width="13" height="12" viewBox="0 0 13 12" fill="none" xmlns="http://www.w3.org/2000/svg">
<g id="Input/ph:dot-outline-fill">
<path id="Vector" d="M10.6045 6C10.6045 6.77876 10.3736 7.54004 9.94091 8.18756C9.50825 8.83508 8.89329 9.33975 8.17381 9.63777C7.45433 9.93579 6.66263 10.0138 5.89883 9.86184C5.13503 9.70991 4.43343 9.3349 3.88276 8.78423C3.33209 8.23356 2.95708 7.53197 2.80515 6.76817C2.65322 6.00437 2.7312 5.21267 3.02922 4.49318C3.32724 3.7737 3.83192 3.15875 4.47944 2.72609C5.12695 2.29343 5.88823 2.0625 6.66699 2.0625C7.71128 2.0625 8.7128 2.47734 9.45123 3.21577C10.1897 3.95419 10.6045 4.95571 10.6045 6Z" fill="#35D871"/>
</g>
</svg>
