<svg width="227" height="227" viewBox="0 0 227 227" fill="none" xmlns="http://www.w3.org/2000/svg">
<g clip-path="url(#clip0_9082_24018)">
<path d="M208.76 0H17.46C7.81711 0 0 7.81711 0 17.46V208.76C0 218.403 7.81711 226.22 17.46 226.22H208.76C218.403 226.22 226.22 218.403 226.22 208.76V17.46C226.22 7.81711 218.403 0 208.76 0Z" fill="white"/>
<path d="M63.7901 136.47C60.8601 136.47 52.59 136.44 47.12 143.46V116.9H32.05V193.52H44.84L46.0801 186.48C46.8501 187.7 50.5201 194.61 63.8801 194.61C70.2801 194.61 86.1501 191.33 86.1501 165.49C86.1501 139.65 70.89 136.47 63.78 136.47H63.7901ZM57.01 182.86C50.93 182.86 48.0801 179.34 47.1501 177.67C47.1501 177.66 47.13 177.64 47.12 177.63V153.92C48.05 152.09 50.94 148.22 56.91 148.22C70.6 148.22 71.09 160.29 71.09 165.49C71.09 170.69 70.9 182.86 57.01 182.86Z" fill="#15B500"/>
<path d="M194.16 165.49C194.16 181.57 181.13 194.61 165.04 194.61C156.12 194.61 148.13 190.59 142.79 184.27C137.45 190.59 129.47 194.61 120.54 194.61C104.46 194.61 91.42 181.57 91.42 165.49C91.42 149.41 104.46 136.37 120.54 136.37C126.09 136.37 131.28 137.92 135.69 140.62C136.87 141.34 137.98 142.15 139.05 143.02C133.91 148.96 130.77 156.66 130.67 165.08L120.16 175.59C114.88 175.4 110.63 171.15 110.44 165.87L125.4 150.91C123.87 150.4 122.24 150.12 120.54 150.12C112.07 150.12 105.17 157.02 105.17 165.49C105.17 173.96 112.07 180.86 120.54 180.86C129.01 180.86 135.91 173.96 135.91 165.49C135.91 149.41 148.95 136.37 165.03 136.37C170.58 136.37 175.77 137.92 180.18 140.62C184.14 143.04 187.48 146.38 189.9 150.34L186.64 153.59L164.64 175.59C159.36 175.4 155.12 171.15 154.92 165.87L169.88 150.91C168.35 150.4 166.72 150.12 165.02 150.12C156.55 150.12 149.65 157.02 149.65 165.49C149.65 173.96 156.55 180.86 165.02 180.86C173.49 180.86 180.39 173.96 180.39 165.49H194.14H194.16Z" fill="#15B500"/>
<path d="M50.9401 48.72C53.4801 45.08 57.0001 43.26 61.5301 43.26C66.4001 43.26 69.9901 44.44 72.3201 46.81C74.6501 49.18 75.8201 52.77 75.8201 57.6H90.5301L90.6301 57.29C90.7701 49.14 88.2501 42.83 83.0701 38.34C77.8901 33.85 70.7101 31.61 61.5301 31.61C52.3501 31.61 45.6201 34.54 40.2001 40.39C34.7801 46.24 32.0701 53.76 32.0701 62.94V77.9C32.0701 87.12 34.8501 94.63 40.4101 100.45C45.9701 106.27 53.2701 109.17 62.3101 109.17C71.3501 109.17 78.1401 106.89 83.1801 102.34C88.2201 97.78 90.6701 91.48 90.5301 83.44L90.4301 83.13H75.7801C75.7801 88.03 74.6701 91.67 72.4401 94.03C70.2101 96.4 66.8401 97.58 62.3201 97.58C57.5601 97.58 53.8401 95.75 51.1601 92.09C48.4801 88.43 47.1501 83.7 47.1501 77.9V62.83C47.1501 57.07 48.4201 52.36 50.9601 48.72H50.9401Z" fill="#15B500"/>
<path d="M169.48 32.54H154.41V108.08H169.48V32.54Z" fill="#15B500"/>
<path d="M193.05 52.04H177.98V108.08H193.05V52.04Z" fill="#15B500"/>
<path d="M193.05 32.54H177.98V43.53H193.05V32.54Z" fill="#15B500"/>
<path d="M146.5 101.19C146.1 98.88 145.9 96.41 145.9 93.79V70.65C145.9 64.33 143.82 59.48 139.66 56.1C135.5 52.72 130.06 51.03 123.33 51.03C116.6 51.03 110.58 52.75 106.22 56.18C101.85 59.62 99.7901 63.69 100.03 68.42L100.13 68.73H114.68C114.68 66.66 115.34 65.03 116.67 63.84C118 62.65 119.89 62.06 122.34 62.06C125.13 62.06 127.24 62.8 128.65 64.29C130.07 65.77 130.77 67.86 130.77 70.55V75H122.28C114.17 75 108 76.51 103.77 79.53C99.5401 82.55 97.4301 86.8 97.4301 92.29C97.4301 97.78 99.0201 101.62 102.2 104.64C105.37 107.66 109.9 109.17 115.77 109.17C119.29 109.17 122.33 108.27 124.88 106.48C127.43 104.69 129.49 102.43 131.04 99.7C131.21 101.19 131.5 102.63 131.89 104.05C132.29 105.47 132.76 106.81 133.31 108.09H148.38C147.52 105.81 146.89 103.52 146.49 101.2L146.5 101.19ZM130.79 91.46C130.03 93.19 128.62 94.7 126.55 96.02C124.48 97.33 122.13 97.99 119.51 97.99C117.34 97.99 115.63 97.43 114.41 96.31C113.18 95.19 112.57 93.68 112.57 91.78C112.57 89.47 113.39 87.52 115.03 85.93C116.67 84.34 119.09 83.55 122.31 83.55H130.8V91.47L130.79 91.46Z" fill="#15B500"/>
</g>
<defs>
<clipPath id="clip0_9082_24018">
<rect width="226.22" height="226.22" fill="white"/>
</clipPath>
</defs>
</svg>
