<svg width="24" height="25" viewBox="0 0 24 25" fill="none" xmlns="http://www.w3.org/2000/svg">
<path fill-rule="evenodd" clip-rule="evenodd" d="M14.948 1.7793L17.052 1.7793C17.951 1.7793 18.7 1.7793 19.294 1.8593C19.922 1.9433 20.489 2.1293 20.944 2.5843C21.4 3.0403 21.586 3.6073 21.67 4.2343C21.75 4.8293 21.75 5.5793 21.75 6.4773L21.75 21.7793H22C22.1989 21.7793 22.3897 21.8583 22.5303 21.999C22.671 22.1396 22.75 22.3304 22.75 22.5293C22.75 22.7282 22.671 22.919 22.5303 23.0596C22.3897 23.2003 22.1989 23.2793 22 23.2793L2 23.2793C1.80109 23.2793 1.61032 23.2003 1.46967 23.0596C1.32902 22.919 1.25 22.7282 1.25 22.5293C1.25 22.3304 1.32902 22.1396 1.46967 21.999C1.61032 21.8583 1.80109 21.7793 2 21.7793H2.25L2.25 9.4773C2.25 8.5793 2.25 7.8293 2.33 7.2353C2.414 6.6073 2.6 6.0403 3.055 5.5853C3.511 5.1293 4.078 4.9433 4.705 4.8593C5.3 4.7793 6.05 4.7793 6.948 4.7793L10.278 4.7793C10.329 3.9053 10.491 3.1493 11.055 2.5843C11.511 2.1293 12.078 1.9443 12.705 1.8593C13.3 1.7793 14.05 1.7793 14.948 1.7793ZM11.007 6.2793L7 6.2793C6.036 6.2793 5.388 6.2813 4.905 6.3463C4.444 6.4083 4.246 6.5153 4.116 6.6463C3.986 6.7763 3.879 6.9733 3.816 7.4343C3.753 7.9173 3.75 8.5653 3.75 9.5293L3.75 21.7793H8.25V19.5293C8.25 19.3304 8.32902 19.1396 8.46967 18.999C8.61032 18.8583 8.80109 18.7793 9 18.7793C9.19891 18.7793 9.38968 18.8583 9.53033 18.999C9.67098 19.1396 9.75 19.3304 9.75 19.5293V21.7793L14.25 21.7793L14.25 9.5293C14.25 8.5653 14.248 7.9173 14.184 7.4343C14.121 6.9733 14.014 6.7753 13.884 6.6453C13.754 6.5153 13.556 6.4083 13.094 6.3453C12.613 6.2813 11.967 6.2793 11.007 6.2793ZM15.75 21.7793L15.75 9.4773C15.75 8.5793 15.75 7.8293 15.67 7.2353C15.586 6.6073 15.4 6.0403 14.944 5.5853C14.489 5.1293 13.922 4.9433 13.294 4.8593C12.869 4.8023 12.364 4.7853 11.784 4.7813C11.834 4.0813 11.944 3.8183 12.116 3.6453C12.246 3.5153 12.444 3.4083 12.906 3.3453C13.388 3.2813 14.036 3.2793 15 3.2793L17 3.2793C17.964 3.2793 18.612 3.2813 19.095 3.3463C19.556 3.4083 19.754 3.5153 19.884 3.6463C20.014 3.7763 20.121 3.9733 20.184 4.4343C20.248 4.9173 20.25 5.5653 20.25 6.5293L20.25 21.7793H15.75ZM5.25 8.5293C5.25 8.33038 5.32902 8.13962 5.46967 7.99897C5.61032 7.85831 5.80109 7.7793 6 7.7793L12 7.7793C12.1989 7.7793 12.3897 7.85831 12.5303 7.99897C12.671 8.13962 12.75 8.33038 12.75 8.5293C12.75 8.72821 12.671 8.91897 12.5303 9.05963C12.3897 9.20028 12.1989 9.2793 12 9.2793L6 9.2793C5.80109 9.2793 5.61032 9.20028 5.46967 9.05963C5.32902 8.91897 5.25 8.72821 5.25 8.5293ZM5.25 11.5293C5.25 11.3304 5.32902 11.1396 5.46967 10.999C5.61032 10.8583 5.80109 10.7793 6 10.7793L12 10.7793C12.1989 10.7793 12.3897 10.8583 12.5303 10.999C12.671 11.1396 12.75 11.3304 12.75 11.5293C12.75 11.7282 12.671 11.919 12.5303 12.0596C12.3897 12.2003 12.1989 12.2793 12 12.2793L6 12.2793C5.80109 12.2793 5.61032 12.2003 5.46967 12.0596C5.32902 11.919 5.25 11.7282 5.25 11.5293ZM5.25 14.5293C5.25 14.3304 5.32902 14.1396 5.46967 13.999C5.61032 13.8583 5.80109 13.7793 6 13.7793L12 13.7793C12.1989 13.7793 12.3897 13.8583 12.5303 13.999C12.671 14.1396 12.75 14.3304 12.75 14.5293C12.75 14.7282 12.671 14.919 12.5303 15.0596C12.3897 15.2003 12.1989 15.2793 12 15.2793L6 15.2793C5.80109 15.2793 5.61032 15.2003 5.46967 15.0596C5.32902 14.919 5.25 14.7282 5.25 14.5293Z" fill="#616161"/>
</svg>
