<svg width="24" height="25" viewBox="0 0 24 25" fill="none" xmlns="http://www.w3.org/2000/svg">
<g id="Input/solar:buildings-bold">
<path id="Vector" fill-rule="evenodd" clip-rule="evenodd" d="M15 2.5293L17 2.5293C18.886 2.5293 19.828 2.5293 20.414 3.1153C21 3.7013 21 4.6433 21 6.5293L21 21.7793H22C22.1989 21.7793 22.3897 21.8583 22.5303 21.999C22.671 22.1396 22.75 22.3304 22.75 22.5293C22.75 22.7282 22.671 22.919 22.5303 23.0596C22.3897 23.2003 22.1989 23.2793 22 23.2793L2 23.2793C1.80109 23.2793 1.61032 23.2003 1.46967 23.0596C1.32902 22.919 1.25 22.7282 1.25 22.5293C1.25 22.3304 1.32902 22.1396 1.46967 21.999C1.61032 21.8583 1.80109 21.7793 2 21.7793H3L3 9.5293C3 7.6433 3 6.7013 3.586 6.1153C4.172 5.5293 5.114 5.5293 7 5.5293L11 5.5293C12.886 5.5293 13.828 5.5293 14.414 6.1153C15 6.7013 15 7.6433 15 9.5293L15 21.7793H16.5L16.5 9.4393C16.5 8.5743 16.5 7.7803 16.413 7.1353C16.318 6.4243 16.093 5.6723 15.475 5.0553C14.857 4.4363 14.105 4.2113 13.395 4.1153C12.758 4.0303 11.977 4.0293 11.126 4.0293C11.21 3.6423 11.351 3.3493 11.586 3.1153C12.172 2.5293 13.114 2.5293 15 2.5293ZM5.25 8.5293C5.25 8.33038 5.32902 8.13962 5.46967 7.99897C5.61032 7.85831 5.80109 7.7793 6 7.7793L12 7.7793C12.1989 7.7793 12.3897 7.85831 12.5303 7.99897C12.671 8.13962 12.75 8.33038 12.75 8.5293C12.75 8.72821 12.671 8.91897 12.5303 9.05963C12.3897 9.20028 12.1989 9.2793 12 9.2793L6 9.2793C5.80109 9.2793 5.61032 9.20028 5.46967 9.05963C5.32902 8.91897 5.25 8.72821 5.25 8.5293ZM5.25 11.5293C5.25 11.3304 5.32902 11.1396 5.46967 10.999C5.61032 10.8583 5.80109 10.7793 6 10.7793L12 10.7793C12.1989 10.7793 12.3897 10.8583 12.5303 10.999C12.671 11.1396 12.75 11.3304 12.75 11.5293C12.75 11.7282 12.671 11.919 12.5303 12.0596C12.3897 12.2003 12.1989 12.2793 12 12.2793L6 12.2793C5.80109 12.2793 5.61032 12.2003 5.46967 12.0596C5.32902 11.919 5.25 11.7282 5.25 11.5293ZM5.25 14.5293C5.25 14.3304 5.32902 14.1396 5.46967 13.999C5.61032 13.8583 5.80109 13.7793 6 13.7793L12 13.7793C12.1989 13.7793 12.3897 13.8583 12.5303 13.999C12.671 14.1396 12.75 14.3304 12.75 14.5293C12.75 14.7282 12.671 14.919 12.5303 15.0596C12.3897 15.2003 12.1989 15.2793 12 15.2793L6 15.2793C5.80109 15.2793 5.61032 15.2003 5.46967 15.0596C5.32902 14.919 5.25 14.7282 5.25 14.5293ZM9 18.7793C9.19891 18.7793 9.38968 18.8583 9.53033 18.999C9.67098 19.1396 9.75 19.3304 9.75 19.5293V21.7793H8.25V19.5293C8.25 19.3304 8.32902 19.1396 8.46967 18.999C8.61032 18.8583 8.80109 18.7793 9 18.7793Z" fill="white"/>
</g>
</svg>
