<svg width="22" height="20" viewBox="0 0 22 20" fill="none" xmlns="http://www.w3.org/2000/svg">
<g id="Wallet">
<path id="Stroke 1" d="M20.6389 12.3958H16.5906C15.1042 12.3949 13.8993 11.1909 13.8984 9.70449C13.8984 8.21804 15.1042 7.01413 16.5906 7.01321L20.6389 7.01321" stroke="#616161" stroke-width="1.5" stroke-linecap="round" stroke-linejoin="round"/>
<path id="Stroke 3" d="M17.0486 9.64288H16.7369" stroke="#616161" stroke-width="1.5" stroke-linecap="round" stroke-linejoin="round"/>
<path id="Stroke 5" fill-rule="evenodd" clip-rule="evenodd" d="M6.74766 1L15.3911 1C18.2892 1 20.6388 3.34951 20.6388 6.24766L20.6388 13.4247C20.6388 16.3229 18.2892 18.6724 15.3911 18.6724L6.74766 18.6724C3.84951 18.6724 1.5 16.3229 1.5 13.4247L1.5 6.24766C1.5 3.34951 3.84951 1 6.74766 1Z" stroke="#616161" stroke-width="1.5" stroke-linecap="round" stroke-linejoin="round"/>
<path id="Stroke 7" d="M6.03564 5.53816L11.4346 5.53816" stroke="#616161" stroke-width="1.5" stroke-linecap="round" stroke-linejoin="round"/>
</g>
</svg>
